<?xml version="1.0" encoding="UTF-8" standalone="no"?>
<!DOCTYPE svg PUBLIC "-//W3C//DTD SVG 1.1//EN"
 "http://www.w3.org/Graphics/SVG/1.1/DTD/svg11.dtd">
<!-- Generated by graphviz version 2.44.1 (20200629.0846)
 -->
<!-- Title: g Pages: 1 -->
<svg width="586pt" height="324pt"
 viewBox="0.00 0.00 586.00 323.60" xmlns="http://www.w3.org/2000/svg" xmlns:xlink="http://www.w3.org/1999/xlink">
<g id="graph0" class="graph" transform="scale(1 1) rotate(0) translate(4 319.6)">
<title>g</title>
<polygon fill="white" stroke="transparent" points="-4,4 -4,-319.6 582,-319.6 582,4 -4,4"/>
<g id="clust1" class="cluster">
<title>cluster_1901307053</title>
<polygon fill="#ececec" stroke="black" points="8,-8 8,-307.6 570,-307.6 570,-8 8,-8"/>
<text text-anchor="middle" x="34.28" y="-291" font-family="Times New Roman,serif" font-size="14.00">Plugin</text>
</g>
<g id="clust2" class="cluster">
<title>cluster_1723619061</title>
<polygon fill="#d8d8d8" stroke="black" points="16,-16 16,-274.8 562,-274.8 562,-16 16,-16"/>
<text text-anchor="middle" x="45" y="-258.2" font-family="Times New Roman,serif" font-size="14.00">Parsing</text>
</g>
<!-- ConsoleParsing880033487 -->
<g id="node1" class="node">
<title>ConsoleParsing880033487</title>
<polygon fill="#ffffff" stroke="transparent" points="553.5,-242 24.5,-242 24.5,-24 553.5,-24 553.5,-242"/>
<text text-anchor="start" x="30" y="-224.4" font-family="Times New Roman,serif" font-size="14.00">(C)ConsoleParsing</text>
<text text-anchor="start" x="30" y="-200.4" font-family="Times New Roman,serif" font-size="14.00"># &#160;&#160;userOutput: UserOutput [0..1]</text>
<text text-anchor="start" x="30" y="-176.4" font-family="Times New Roman,serif" font-size="14.00">+ getInstruction(instructions: Instruction[]): Instruction</text>
<text text-anchor="start" x="29.91" y="-152.4" font-family="Times New Roman,serif" font-size="14.00">+ parseEvaluationFunction(evaluationFunctions: EvaluationFunction[]): EvaluationFunction</text>
<text text-anchor="start" x="30" y="-128.4" font-family="Times New Roman,serif" font-size="14.00">+ parseMaxDuration(): Duration</text>
<text text-anchor="start" x="30" y="-104.4" font-family="Times New Roman,serif" font-size="14.00">+ parseMovementSpeed(): MovementSpeed</text>
<text text-anchor="start" x="30" y="-80.4" font-family="Times New Roman,serif" font-size="14.00">+ pathsToMovementSpeeds(): MovementSpeed</text>
<text text-anchor="start" x="30" y="-56.4" font-family="Times New Roman,serif" font-size="14.00">+ readPath(): String</text>
<text text-anchor="start" x="30" y="-32.4" font-family="Times New Roman,serif" font-size="14.00">+ readPaths(): String[]</text>
<polygon fill="black" stroke="black" points="25,-217 25,-217 554,-217 554,-217 25,-217"/>
<polygon fill="black" stroke="black" points="25,-193 25,-193 554,-193 554,-193 25,-193"/>
<polygon fill="none" stroke="black" points="24.5,-24 24.5,-242 553.5,-242 553.5,-24 24.5,-24"/>
</g>
</g>
</svg>
