<?xml version="1.0" encoding="UTF-8" standalone="no"?>
<!DOCTYPE svg PUBLIC "-//W3C//DTD SVG 1.1//EN"
 "http://www.w3.org/Graphics/SVG/1.1/DTD/svg11.dtd">
<!-- Generated by graphviz version 2.44.1 (20200629.0846)
 -->
<!-- Title: g Pages: 1 -->
<svg width="412pt" height="396pt"
 viewBox="0.00 0.00 412.00 395.60" xmlns="http://www.w3.org/2000/svg" xmlns:xlink="http://www.w3.org/1999/xlink">
<g id="graph0" class="graph" transform="scale(1 1) rotate(0) translate(4 391.6)">
<title>g</title>
<polygon fill="white" stroke="transparent" points="-4,4 -4,-391.6 408,-391.6 408,4 -4,4"/>
<g id="clust1" class="cluster">
<title>cluster_2052636900</title>
<polygon fill="#ececec" stroke="black" points="8,-8 8,-379.6 396,-379.6 396,-8 8,-8"/>
<text text-anchor="middle" x="38.55" y="-363" font-family="Times New Roman,serif" font-size="14.00">Domain</text>
</g>
<g id="clust2" class="cluster">
<title>cluster_1146139724</title>
<polygon fill="#d8d8d8" stroke="black" points="16,-16 16,-346.8 388,-346.8 388,-16 16,-16"/>
<text text-anchor="middle" x="58.99" y="-330.2" font-family="Times New Roman,serif" font-size="14.00">Calculations</text>
</g>
<!-- DistanceCalculator1949287398 -->
<g id="node1" class="node">
<title>DistanceCalculator1949287398</title>
<polygon fill="#ffffff" stroke="transparent" points="380,-314 24,-314 24,-24 380,-24 380,-314"/>
<text text-anchor="start" x="29" y="-296.4" font-family="Times New Roman,serif" font-size="14.00">(C)DistanceCalculator</text>
<text text-anchor="start" x="29" y="-272.4" font-family="Times New Roman,serif" font-size="14.00">+ calc2dDistance(a: Location, b: Location): Distance</text>
<text text-anchor="start" x="29" y="-248.4" font-family="Times New Roman,serif" font-size="14.00">+ calc2dDistance(path: Path): Distance</text>
<text text-anchor="start" x="29" y="-224.4" font-family="Times New Roman,serif" font-size="14.00">+ calc3dDistance(a: Location, b: Location): Distance</text>
<text text-anchor="start" x="29" y="-200.4" font-family="Times New Roman,serif" font-size="14.00">+ calc3dDistance(path: Path): Distance</text>
<text text-anchor="start" x="29" y="-176.4" font-family="Times New Roman,serif" font-size="14.00">+ calcAvgAlt(list: List&lt;Location&gt;): Elevation</text>
<text text-anchor="start" x="29" y="-152.4" font-family="Times New Roman,serif" font-size="14.00">&#45; calcDeltaLat(a: Location, b: Location): Distance</text>
<text text-anchor="start" x="29" y="-128.4" font-family="Times New Roman,serif" font-size="14.00">&#45; calcDeltaLon(a: Location, b: Location): Distance</text>
<text text-anchor="start" x="28.55" y="-104.4" font-family="Times New Roman,serif" font-size="14.00">+ calcElevationGain(a: Location, b: Location): ElevationGain</text>
<text text-anchor="start" x="29" y="-80.4" font-family="Times New Roman,serif" font-size="14.00">+ calcElevationGain(path: Path): ElevationGain</text>
<text text-anchor="start" x="29" y="-56.4" font-family="Times New Roman,serif" font-size="14.00">+ calcMaxAlt(list: List&lt;Location&gt;): Elevation</text>
<text text-anchor="start" x="29" y="-32.4" font-family="Times New Roman,serif" font-size="14.00">+ calcMinAlt(list: List&lt;Location&gt;): Elevation</text>
<polygon fill="black" stroke="black" points="24,-289 24,-289 380,-289 380,-289 24,-289"/>
<polygon fill="none" stroke="black" points="24,-24 24,-314 380,-314 380,-24 24,-24"/>
</g>
</g>
</svg>
