<?xml version="1.0" encoding="UTF-8" standalone="no"?>
<!DOCTYPE svg PUBLIC "-//W3C//DTD SVG 1.1//EN"
 "http://www.w3.org/Graphics/SVG/1.1/DTD/svg11.dtd">
<!-- Generated by graphviz version 2.44.1 (20200629.0846)
 -->
<!-- Title: g Pages: 1 -->
<svg width="952pt" height="450pt"
 viewBox="0.00 0.00 952.00 450.40" xmlns="http://www.w3.org/2000/svg" xmlns:xlink="http://www.w3.org/1999/xlink">
<g id="graph0" class="graph" transform="scale(1 1) rotate(0) translate(4 446.4)">
<title>g</title>
<polygon fill="white" stroke="transparent" points="-4,4 -4,-446.4 948,-446.4 948,4 -4,4"/>
<g id="clust3" class="cluster">
<title>cluster_1901307053</title>
<polygon fill="#ececec" stroke="black" points="374,-8 374,-434.4 936,-434.4 936,-8 374,-8"/>
<text text-anchor="middle" x="400.28" y="-417.8" font-family="Times New Roman,serif" font-size="14.00">Plugin</text>
</g>
<g id="clust4" class="cluster">
<title>cluster_1723619061</title>
<polygon fill="#d8d8d8" stroke="black" points="382,-16 382,-401.6 928,-401.6 928,-16 382,-16"/>
<text text-anchor="middle" x="411" y="-385" font-family="Times New Roman,serif" font-size="14.00">Parsing</text>
</g>
<g id="clust1" class="cluster">
<title>cluster_1072845520</title>
<polygon fill="#ececec" stroke="black" points="8,-194.8 8,-374.4 366,-374.4 366,-194.8 8,-194.8"/>
<text text-anchor="middle" x="49.05" y="-357.8" font-family="Times New Roman,serif" font-size="14.00">Application</text>
</g>
<g id="clust2" class="cluster">
<title>cluster_899390013</title>
<polygon fill="#d8d8d8" stroke="black" points="146,-202.8 146,-341.6 358,-341.6 358,-202.8 146,-202.8"/>
<text text-anchor="middle" x="187.05" y="-325" font-family="Times New Roman,serif" font-size="14.00">Instructions</text>
</g>
<!-- XMLParser402627690 -->
<g id="node1" class="node">
<title>XMLParser402627690</title>
<polygon fill="#f1e5fd" stroke="transparent" points="136,-284.8 16,-284.8 16,-234.8 136,-234.8 136,-284.8"/>
<text text-anchor="start" x="21" y="-267.2" font-family="Times New Roman,serif" font-size="14.00">(I)XMLParser</text>
<text text-anchor="start" x="20.74" y="-243.2" font-family="Times New Roman,serif" font-size="14.00">+ read(path: String)</text>
<polygon fill="black" stroke="black" points="16,-259.8 16,-259.8 136,-259.8 136,-259.8 16,-259.8"/>
<polygon fill="none" stroke="black" points="16,-234.8 16,-284.8 136,-284.8 136,-234.8 16,-234.8"/>
</g>
<!-- GPXToTour923078099 -->
<g id="node4" class="node">
<title>GPXToTour923078099</title>
<polygon fill="#ffffff" stroke="transparent" points="510,-98 390,-98 390,-24 510,-24 510,-98"/>
<text text-anchor="start" x="395" y="-80.4" font-family="Times New Roman,serif" font-size="14.00">(C)GPXToTour</text>
<text text-anchor="start" x="395" y="-56.4" font-family="Times New Roman,serif" font-size="14.00"># &#160;&#160;tour: Tour [0..1]</text>
<text text-anchor="start" x="394.74" y="-32.4" font-family="Times New Roman,serif" font-size="14.00">+ read(path: String)</text>
<polygon fill="black" stroke="black" points="390,-73 390,-73 510,-73 510,-73 390,-73"/>
<polygon fill="black" stroke="black" points="390,-49 390,-49 510,-49 510,-49 390,-49"/>
<polygon fill="none" stroke="black" points="390,-24 390,-98 510,-98 510,-24 390,-24"/>
</g>
<!-- XMLParser402627690&#45;&gt;GPXToTour923078099 -->
<g id="edge3" class="edge">
<title>XMLParser402627690&#45;&gt;GPXToTour923078099</title>
<path fill="none" stroke="black" d="M96.07,-225.95C115.49,-194.18 142,-150.8 142,-150.8 142,-150.8 300.25,-105.17 389.88,-79.33"/>
<polygon fill="none" stroke="black" points="93.04,-224.2 90.81,-234.56 99.01,-227.85 93.04,-224.2"/>
</g>
<!-- ReadPath1197983005 -->
<g id="node2" class="node">
<title>ReadPath1197983005</title>
<polygon fill="#ffffff" stroke="transparent" points="350,-308.8 154,-308.8 154,-210.8 350,-210.8 350,-308.8"/>
<text text-anchor="start" x="159" y="-291.2" font-family="Times New Roman,serif" font-size="14.00">(C)ReadPath</text>
<text text-anchor="start" x="159" y="-267.2" font-family="Times New Roman,serif" font-size="14.00"># &#160;&#160;userInput: UserInput [0..1]</text>
<text text-anchor="start" x="158.88" y="-243.2" font-family="Times New Roman,serif" font-size="14.00"># &#160;&#160;userOutput: UserOutput [0..1]</text>
<text text-anchor="start" x="159" y="-219.2" font-family="Times New Roman,serif" font-size="14.00">+ execute(state: State): State</text>
<polygon fill="black" stroke="black" points="154,-283.8 154,-283.8 350,-283.8 350,-283.8 154,-283.8"/>
<polygon fill="black" stroke="black" points="154,-235.8 154,-235.8 350,-235.8 350,-235.8 154,-235.8"/>
<polygon fill="none" stroke="black" points="154,-210.8 154,-308.8 350,-308.8 350,-210.8 154,-210.8"/>
</g>
<!-- ReadPath1197983005&#45;&gt;GPXToTour923078099 -->
<g id="edge2" class="edge">
<title>ReadPath1197983005&#45;&gt;GPXToTour923078099</title>
<path fill="none" stroke="black" d="M300.44,-210.66C332.76,-178.53 374.92,-136.62 406.24,-105.5"/>
<polygon fill="black" stroke="black" points="408.92,-107.76 413.55,-98.23 403.99,-102.8 408.92,-107.76"/>
<text text-anchor="middle" x="443.52" y="-120.2" font-family="Times New Roman,serif" font-size="14.00">execute() &#45;&gt; read()</text>
</g>
<!-- ConsoleParsing880033487 -->
<g id="node3" class="node">
<title>ConsoleParsing880033487</title>
<polygon fill="#ffffff" stroke="transparent" points="919.5,-368.8 390.5,-368.8 390.5,-150.8 919.5,-150.8 919.5,-368.8"/>
<text text-anchor="start" x="396" y="-351.2" font-family="Times New Roman,serif" font-size="14.00">(C)ConsoleParsing</text>
<text text-anchor="start" x="396" y="-327.2" font-family="Times New Roman,serif" font-size="14.00"># &#160;&#160;userOutput: UserOutput [0..1]</text>
<text text-anchor="start" x="396" y="-303.2" font-family="Times New Roman,serif" font-size="14.00">+ getInstruction(instructions: Instruction[]): Instruction</text>
<text text-anchor="start" x="395.91" y="-279.2" font-family="Times New Roman,serif" font-size="14.00">+ parseEvaluationFunction(evaluationFunctions: EvaluationFunction[]): EvaluationFunction</text>
<text text-anchor="start" x="396" y="-255.2" font-family="Times New Roman,serif" font-size="14.00">+ parseMaxDuration(): Duration</text>
<text text-anchor="start" x="396" y="-231.2" font-family="Times New Roman,serif" font-size="14.00">+ parseMovementSpeed(): MovementSpeed</text>
<text text-anchor="start" x="396" y="-207.2" font-family="Times New Roman,serif" font-size="14.00">+ pathsToMovementSpeeds(): MovementSpeed</text>
<text text-anchor="start" x="396" y="-183.2" font-family="Times New Roman,serif" font-size="14.00">+ readPath(): String</text>
<text text-anchor="start" x="396" y="-159.2" font-family="Times New Roman,serif" font-size="14.00">+ readPaths(): String[]</text>
<polygon fill="black" stroke="black" points="391,-343.8 391,-343.8 920,-343.8 920,-343.8 391,-343.8"/>
<polygon fill="black" stroke="black" points="391,-319.8 391,-319.8 920,-319.8 920,-319.8 391,-319.8"/>
<polygon fill="none" stroke="black" points="390.5,-150.8 390.5,-368.8 919.5,-368.8 919.5,-150.8 390.5,-150.8"/>
</g>
<!-- ConsoleParsing880033487&#45;&gt;GPXToTour923078099 -->
<g id="edge1" class="edge">
<title>ConsoleParsing880033487&#45;&gt;GPXToTour923078099</title>
<path fill="none" stroke="black" d="M542.31,-150.61C525.51,-134.49 509.08,-118.72 494.85,-105.06"/>
<polygon fill="black" stroke="black" points="497.26,-102.51 487.62,-98.11 492.41,-107.56 497.26,-102.51"/>
<text text-anchor="middle" x="625.85" y="-120.2" font-family="Times New Roman,serif" font-size="14.00">pathsToMovementSpeeds() &#45;&gt; read()</text>
</g>
</g>
</svg>
