<?xml version="1.0" encoding="UTF-8" standalone="no"?>
<!DOCTYPE svg PUBLIC "-//W3C//DTD SVG 1.1//EN"
 "http://www.w3.org/Graphics/SVG/1.1/DTD/svg11.dtd">
<!-- Generated by graphviz version 2.44.1 (20200629.0846)
 -->
<!-- Title: g Pages: 1 -->
<svg width="1012pt" height="930pt"
 viewBox="0.00 0.00 1012.00 930.20" xmlns="http://www.w3.org/2000/svg" xmlns:xlink="http://www.w3.org/1999/xlink">
<g id="graph0" class="graph" transform="scale(1 1) rotate(0) translate(4 926.2)">
<title>g</title>
<polygon fill="white" stroke="transparent" points="-4,4 -4,-926.2 1008,-926.2 1008,4 -4,4"/>
<g id="clust1" class="cluster">
<title>cluster_1072845520</title>
<polygon fill="#ececec" stroke="black" points="8,-8 8,-914.2 600,-914.2 600,-8 8,-8"/>
<text text-anchor="middle" x="49.05" y="-897.6" font-family="Times New Roman,serif" font-size="14.00">Application</text>
</g>
<g id="clust2" class="cluster">
<title>cluster_1114602656</title>
<polygon fill="#d8d8d8" stroke="black" points="472,-260 472,-350.8 592,-350.8 592,-260 472,-260"/>
<text text-anchor="middle" x="496.72" y="-334.2" font-family="Times New Roman,serif" font-size="14.00">States</text>
</g>
<g id="clust3" class="cluster">
<title>cluster_899390013</title>
<polygon fill="#d8d8d8" stroke="black" points="363,-631.6 363,-881.4 575,-881.4 575,-631.6 363,-631.6"/>
<text text-anchor="middle" x="404.05" y="-864.8" font-family="Times New Roman,serif" font-size="14.00">Instructions</text>
</g>
<g id="clust4" class="cluster">
<title>cluster_2052636900</title>
<polygon fill="#ececec" stroke="black" points="608,-132 608,-503.6 996,-503.6 996,-132 608,-132"/>
<text text-anchor="middle" x="638.55" y="-487" font-family="Times New Roman,serif" font-size="14.00">Domain</text>
</g>
<g id="clust5" class="cluster">
<title>cluster_1146139724</title>
<polygon fill="#d8d8d8" stroke="black" points="616,-140 616,-470.8 988,-470.8 988,-140 616,-140"/>
<text text-anchor="middle" x="658.99" y="-454.2" font-family="Times New Roman,serif" font-size="14.00">Calculations</text>
</g>
<!-- UserOutput402627690 -->
<g id="node1" class="node">
<title>UserOutput402627690</title>
<polygon fill="#f1e5fd" stroke="transparent" points="461.5,-570 16.5,-570 16.5,-16 461.5,-16 461.5,-570"/>
<text text-anchor="start" x="22" y="-552.4" font-family="Times New Roman,serif" font-size="14.00">(I)UserOutput</text>
<text text-anchor="start" x="22" y="-528.4" font-family="Times New Roman,serif" font-size="14.00">+ alertGranularityTooHigh(granularity: int)</text>
<text text-anchor="start" x="22" y="-504.4" font-family="Times New Roman,serif" font-size="14.00">+ alertWrongFileType(filePath: String, expected: String)</text>
<text text-anchor="start" x="22" y="-480.4" font-family="Times New Roman,serif" font-size="14.00">+ info(s: String)</text>
<text text-anchor="start" x="22" y="-456.4" font-family="Times New Roman,serif" font-size="14.00">+ infoEstimatedTime(pathName: String, estimatedTime: Duration)</text>
<text text-anchor="start" x="22" y="-432.4" font-family="Times New Roman,serif" font-size="14.00">+ infoGeneratedTrack(trackName: String)</text>
<text text-anchor="start" x="22" y="-408.4" font-family="Times New Roman,serif" font-size="14.00">+ infoPMS(pms: MovementSpeed)</text>
<text text-anchor="start" x="22" y="-384.4" font-family="Times New Roman,serif" font-size="14.00">+ infoPMSofTour(tourName: String, pms: MovementSpeed)</text>
<text text-anchor="start" x="22" y="-360.4" font-family="Times New Roman,serif" font-size="14.00">+ infoPathElevationGain(pathname: String, elevationGain: String)</text>
<text text-anchor="start" x="22" y="-336.4" font-family="Times New Roman,serif" font-size="14.00">+ infoPathLength(pathName: String, length: String)</text>
<text text-anchor="start" x="22" y="-312.4" font-family="Times New Roman,serif" font-size="14.00">+ infoTimeTaken(tourName: String, timeTaken: Duration)</text>
<text text-anchor="start" x="22" y="-288.4" font-family="Times New Roman,serif" font-size="14.00">+ infoWayPointsToSplit(splitPoints: WayPointSet)</text>
<text text-anchor="start" x="22" y="-264.4" font-family="Times New Roman,serif" font-size="14.00">+ printBoolMatrix(matrix: boolean[][])</text>
<text text-anchor="start" x="22" y="-240.4" font-family="Times New Roman,serif" font-size="14.00">+ provideEvaluationFunctions(evaluationFunctions: EvaluationFunction[])</text>
<text text-anchor="start" x="22" y="-216.4" font-family="Times New Roman,serif" font-size="14.00">+ provideInstructions(instructions: Instruction[])</text>
<text text-anchor="start" x="22" y="-192.4" font-family="Times New Roman,serif" font-size="14.00">+ provideSports()</text>
<text text-anchor="start" x="21.91" y="-168.4" font-family="Times New Roman,serif" font-size="14.00">+ showElevationProfile(tourName: String, elevationProfile: ElevationProfile)</text>
<text text-anchor="start" x="22" y="-144.4" font-family="Times New Roman,serif" font-size="14.00">+ showSpeedProfile(tourName: String, speedProfile: SpeedProfile)</text>
<text text-anchor="start" x="22" y="-120.4" font-family="Times New Roman,serif" font-size="14.00">+ userToGiveClassPath(basePath: String)</text>
<text text-anchor="start" x="22" y="-96.4" font-family="Times New Roman,serif" font-size="14.00">+ userToGiveClassPath(basePath: String, abortOption: String)</text>
<text text-anchor="start" x="22" y="-72.4" font-family="Times New Roman,serif" font-size="14.00">+ userToProvideGranularity()</text>
<text text-anchor="start" x="22" y="-48.4" font-family="Times New Roman,serif" font-size="14.00">+ userToProvideInstruction()</text>
<text text-anchor="start" x="22" y="-24.4" font-family="Times New Roman,serif" font-size="14.00">+ userToProvideMovementSpeed()</text>
<polygon fill="black" stroke="black" points="17,-545 17,-545 462,-545 462,-545 17,-545"/>
<polygon fill="none" stroke="black" points="16.5,-16 16.5,-570 461.5,-570 461.5,-16 16.5,-16"/>
</g>
<!-- State534505338 -->
<g id="node2" class="node">
<title>State534505338</title>
<polygon fill="#f1e5fd" stroke="transparent" points="584,-318 480,-318 480,-268 584,-268 584,-318"/>
<text text-anchor="start" x="485" y="-300.4" font-family="Times New Roman,serif" font-size="14.00">(I)State</text>
<text text-anchor="start" x="484.51" y="-276.4" font-family="Times New Roman,serif" font-size="14.00">+ getPath(): Path</text>
<polygon fill="black" stroke="black" points="480,-293 480,-293 584,-293 584,-293 480,-293"/>
<polygon fill="none" stroke="black" points="480,-268 480,-318 584,-318 584,-268 480,-268"/>
</g>
<!-- GetDistance1197983005 -->
<g id="node3" class="node">
<title>GetDistance1197983005</title>
<polygon fill="#ffffff" stroke="transparent" points="567,-713.6 371,-713.6 371,-639.6 567,-639.6 567,-713.6"/>
<text text-anchor="start" x="376" y="-696" font-family="Times New Roman,serif" font-size="14.00">(C)GetDistance</text>
<text text-anchor="start" x="375.88" y="-672" font-family="Times New Roman,serif" font-size="14.00"># &#160;&#160;userOutput: UserOutput [0..1]</text>
<text text-anchor="start" x="376" y="-648" font-family="Times New Roman,serif" font-size="14.00">+ execute(state: State): State</text>
<polygon fill="black" stroke="black" points="371,-688.6 371,-688.6 567,-688.6 567,-688.6 371,-688.6"/>
<polygon fill="black" stroke="black" points="371,-664.6 371,-664.6 567,-664.6 567,-664.6 371,-664.6"/>
<polygon fill="none" stroke="black" points="371,-639.6 371,-713.6 567,-713.6 567,-639.6 371,-639.6"/>
</g>
<!-- GetDistance1197983005&#45;&gt;UserOutput402627690 -->
<g id="edge3" class="edge">
<title>GetDistance1197983005&#45;&gt;UserOutput402627690</title>
<path fill="none" stroke="black" d="M430.84,-639.58C420.35,-629.68 411.79,-621.6 411.79,-621.6 411.79,-621.6 403.01,-604.94 389.4,-579.14"/>
<polygon fill="black" stroke="black" points="392.36,-577.26 384.6,-570.05 386.17,-580.53 392.36,-577.26"/>
<text text-anchor="middle" x="442.1" y="-609" font-family="Times New Roman,serif" font-size="14.00">userOutput</text>
<text text-anchor="middle" x="442.1" y="-592.2" font-family="Times New Roman,serif" font-size="14.00">[0..1]</text>
</g>
<!-- GetDistance1197983005&#45;&gt;State534505338 -->
<g id="edge2" class="edge">
<title>GetDistance1197983005&#45;&gt;State534505338</title>
<path fill="none" stroke="black" d="M474.98,-639.36C487.13,-565.77 514.54,-399.76 526.38,-328.05"/>
<polygon fill="black" stroke="black" points="529.83,-328.61 528.01,-318.18 522.93,-327.47 529.83,-328.61"/>
<text text-anchor="middle" x="543.47" y="-600.6" font-family="Times New Roman,serif" font-size="14.00">execute() &#45;&gt; getPath()</text>
</g>
<!-- DistanceCalculator1949287398 -->
<g id="node5" class="node">
<title>DistanceCalculator1949287398</title>
<polygon fill="#ffffff" stroke="transparent" points="980,-438 624,-438 624,-148 980,-148 980,-438"/>
<text text-anchor="start" x="629" y="-420.4" font-family="Times New Roman,serif" font-size="14.00">(C)DistanceCalculator</text>
<text text-anchor="start" x="629" y="-396.4" font-family="Times New Roman,serif" font-size="14.00">+ calc2dDistance(a: Location, b: Location): Distance</text>
<text text-anchor="start" x="629" y="-372.4" font-family="Times New Roman,serif" font-size="14.00">+ calc2dDistance(path: Path): Distance</text>
<text text-anchor="start" x="629" y="-348.4" font-family="Times New Roman,serif" font-size="14.00">+ calc3dDistance(a: Location, b: Location): Distance</text>
<text text-anchor="start" x="629" y="-324.4" font-family="Times New Roman,serif" font-size="14.00">+ calc3dDistance(path: Path): Distance</text>
<text text-anchor="start" x="629" y="-300.4" font-family="Times New Roman,serif" font-size="14.00">+ calcAvgAlt(list: List&lt;Location&gt;): Elevation</text>
<text text-anchor="start" x="629" y="-276.4" font-family="Times New Roman,serif" font-size="14.00">&#45; calcDeltaLat(a: Location, b: Location): Distance</text>
<text text-anchor="start" x="629" y="-252.4" font-family="Times New Roman,serif" font-size="14.00">&#45; calcDeltaLon(a: Location, b: Location): Distance</text>
<text text-anchor="start" x="628.55" y="-228.4" font-family="Times New Roman,serif" font-size="14.00">+ calcElevationGain(a: Location, b: Location): ElevationGain</text>
<text text-anchor="start" x="629" y="-204.4" font-family="Times New Roman,serif" font-size="14.00">+ calcElevationGain(path: Path): ElevationGain</text>
<text text-anchor="start" x="629" y="-180.4" font-family="Times New Roman,serif" font-size="14.00">+ calcMaxAlt(list: List&lt;Location&gt;): Elevation</text>
<text text-anchor="start" x="629" y="-156.4" font-family="Times New Roman,serif" font-size="14.00">+ calcMinAlt(list: List&lt;Location&gt;): Elevation</text>
<polygon fill="black" stroke="black" points="624,-413 624,-413 980,-413 980,-413 624,-413"/>
<polygon fill="none" stroke="black" points="624,-148 624,-438 980,-438 980,-148 624,-148"/>
</g>
<!-- GetDistance1197983005&#45;&gt;DistanceCalculator1949287398 -->
<g id="edge1" class="edge">
<title>GetDistance1197983005&#45;&gt;DistanceCalculator1949287398</title>
<path fill="none" stroke="black" d="M562.38,-639.58C588.06,-629.68 609,-621.6 609,-621.6 609,-621.6 661.61,-532.3 711.9,-446.94"/>
<polygon fill="black" stroke="black" points="715.01,-448.56 717.07,-438.17 708.97,-445.01 715.01,-448.56"/>
<text text-anchor="middle" x="708.23" y="-600.6" font-family="Times New Roman,serif" font-size="14.00">execute() &#45;&gt; calc3dDistance()</text>
</g>
<!-- Instruction1197983005 -->
<g id="node4" class="node">
<title>Instruction1197983005</title>
<polygon fill="#f1e5fd" stroke="transparent" points="553.5,-848.6 384.5,-848.6 384.5,-750.6 553.5,-750.6 553.5,-848.6"/>
<text text-anchor="start" x="390" y="-831" font-family="Times New Roman,serif" font-size="14.00">(I)Instruction</text>
<text text-anchor="start" x="389.56" y="-807" font-family="Times New Roman,serif" font-size="14.00">+ execute(state: State): State</text>
<text text-anchor="start" x="390" y="-783" font-family="Times New Roman,serif" font-size="14.00">+ getDescription(): String</text>
<text text-anchor="start" x="390" y="-759" font-family="Times New Roman,serif" font-size="14.00">+ getRegex(): String</text>
<polygon fill="black" stroke="black" points="385,-823.6 385,-823.6 554,-823.6 554,-823.6 385,-823.6"/>
<polygon fill="none" stroke="black" points="384.5,-750.6 384.5,-848.6 553.5,-848.6 553.5,-750.6 384.5,-750.6"/>
</g>
<!-- Instruction1197983005&#45;&gt;GetDistance1197983005 -->
<g id="edge4" class="edge">
<title>Instruction1197983005&#45;&gt;GetDistance1197983005</title>
<path fill="none" stroke="black" d="M469,-740.26C469,-731.19 469,-722.05 469,-713.67"/>
<polygon fill="none" stroke="black" points="465.5,-740.43 469,-750.43 472.5,-740.43 465.5,-740.43"/>
</g>
</g>
</svg>
