<?xml version="1.0" encoding="UTF-8" standalone="no"?>
<!DOCTYPE svg PUBLIC "-//W3C//DTD SVG 1.1//EN"
 "http://www.w3.org/Graphics/SVG/1.1/DTD/svg11.dtd">
<!-- Generated by graphviz version 2.44.1 (20200629.0846)
 -->
<!-- Title: g Pages: 1 -->
<svg width="1853pt" height="682pt"
 viewBox="0.00 0.00 1853.00 682.00" xmlns="http://www.w3.org/2000/svg" xmlns:xlink="http://www.w3.org/1999/xlink">
<g id="graph0" class="graph" transform="scale(1 1) rotate(0) translate(4 678)">
<title>g</title>
<polygon fill="white" stroke="transparent" points="-4,4 -4,-678 1849,-678 1849,4 -4,4"/>
<g id="clust1" class="cluster">
<title>cluster_2052636900</title>
<polygon fill="#ececec" stroke="black" points="8,-8 8,-666 1837,-666 1837,-8 8,-8"/>
<text text-anchor="middle" x="38.55" y="-649.4" font-family="Times New Roman,serif" font-size="14.00">Domain</text>
</g>
<g id="clust3" class="cluster">
<title>cluster_518132580</title>
<polygon fill="#d8d8d8" stroke="black" points="1677,-16 1677,-154.8 1829,-154.8 1829,-16 1677,-16"/>
<text text-anchor="middle" x="1716.49" y="-138.2" font-family="Times New Roman,serif" font-size="14.00">WayModel</text>
</g>
<g id="clust2" class="cluster">
<title>cluster_1146139724</title>
<polygon fill="#d8d8d8" stroke="black" points="16,-16 16,-633.2 1669,-633.2 1669,-16 16,-16"/>
<text text-anchor="middle" x="58.99" y="-616.6" font-family="Times New Roman,serif" font-size="14.00">Calculations</text>
</g>
<!-- Detours1061971300 -->
<g id="node1" class="node">
<title>Detours1061971300</title>
<polygon fill="#ffffff" stroke="transparent" points="556,-122 24,-122 24,-24 556,-24 556,-122"/>
<text text-anchor="start" x="29" y="-104.4" font-family="Times New Roman,serif" font-size="14.00">(C)Detours</text>
<text text-anchor="start" x="29" y="-80.4" font-family="Times New Roman,serif" font-size="14.00"># &#160;&#160;possibleDetours: List&lt;Detour&gt; [0..*]</text>
<text text-anchor="start" x="29" y="-56.4" font-family="Times New Roman,serif" font-size="14.00">+ addDetour(detour: Detour)</text>
<text text-anchor="start" x="28.85" y="-32.4" font-family="Times New Roman,serif" font-size="14.00">+ initDetours(path: Path, wayPointSet: WayPointSet, timeHeuristic: TimeHeuristic): Detours</text>
<polygon fill="black" stroke="black" points="24,-97 24,-97 556,-97 556,-97 24,-97"/>
<polygon fill="black" stroke="black" points="24,-73 24,-73 556,-73 556,-73 24,-73"/>
<polygon fill="none" stroke="black" points="24,-24 24,-122 556,-122 556,-24 24,-24"/>
</g>
<!-- EvaluationFunction633410066 -->
<g id="node2" class="node">
<title>EvaluationFunction633410066</title>
<polygon fill="#f1e5fd" stroke="transparent" points="1112,-122 574,-122 574,-24 1112,-24 1112,-122"/>
<text text-anchor="start" x="579" y="-104.4" font-family="Times New Roman,serif" font-size="14.00">(I)EvaluationFunction</text>
<text text-anchor="start" x="578.66" y="-80.4" font-family="Times New Roman,serif" font-size="14.00">+ evaluate(path: ArrayList&lt;Location&gt;, detours: Detours, representation: Representation): long</text>
<text text-anchor="start" x="579" y="-56.4" font-family="Times New Roman,serif" font-size="14.00">+ getDescription(): String</text>
<text text-anchor="start" x="579" y="-32.4" font-family="Times New Roman,serif" font-size="14.00">+ getRegex(): String</text>
<polygon fill="black" stroke="black" points="574,-97 574,-97 1112,-97 1112,-97 574,-97"/>
<polygon fill="none" stroke="black" points="574,-24 574,-122 1112,-122 1112,-24 574,-24"/>
</g>
<!-- Hillclimbing1061971300 -->
<g id="node3" class="node">
<title>Hillclimbing1061971300</title>
<polygon fill="#ffffff" stroke="transparent" points="1499.5,-600.4 942.5,-600.4 942.5,-214.4 1499.5,-214.4 1499.5,-600.4"/>
<text text-anchor="start" x="948" y="-582.8" font-family="Times New Roman,serif" font-size="14.00">(C)Hillclimbing</text>
<text text-anchor="start" x="948" y="-558.8" font-family="Times New Roman,serif" font-size="14.00"># &#160;&#160;description: String [0..1]</text>
<text text-anchor="start" x="948" y="-534.8" font-family="Times New Roman,serif" font-size="14.00"># &#160;&#160;detours: Detours [0..1]</text>
<text text-anchor="start" x="948" y="-510.8" font-family="Times New Roman,serif" font-size="14.00"># &#160;&#160;evaluationFunction: EvaluationFunction [0..1]</text>
<text text-anchor="start" x="948" y="-486.8" font-family="Times New Roman,serif" font-size="14.00"># &#160;&#160;generationSize: int [1]</text>
<text text-anchor="start" x="948" y="-462.8" font-family="Times New Roman,serif" font-size="14.00"># &#160;&#160;movementSpeed: MovementSpeed [0..1]</text>
<text text-anchor="start" x="948" y="-438.8" font-family="Times New Roman,serif" font-size="14.00"># &#160;&#160;path: ArrayList&lt;Location&gt; [0..*]</text>
<text text-anchor="start" x="948" y="-414.8" font-family="Times New Roman,serif" font-size="14.00"># &#160;&#160;representations: Representation[] [0..*]</text>
<text text-anchor="start" x="948" y="-390.8" font-family="Times New Roman,serif" font-size="14.00">&#45; EvolutionStep(): boolean</text>
<text text-anchor="start" x="948" y="-366.8" font-family="Times New Roman,serif" font-size="14.00">&#45; evaluateGeneration(representations: Representation[]): long</text>
<text text-anchor="start" x="948" y="-342.8" font-family="Times New Roman,serif" font-size="14.00">+ evaluationFunction(representation: Representation): long</text>
<text text-anchor="start" x="947.83" y="-318.8" font-family="Times New Roman,serif" font-size="14.00">&#45; greedySelection(representations: Representation[], children: Representation[]): Representation[]</text>
<text text-anchor="start" x="948" y="-294.8" font-family="Times New Roman,serif" font-size="14.00">+ hillClimbing()</text>
<text text-anchor="start" x="948" y="-270.8" font-family="Times New Roman,serif" font-size="14.00">&#45; initRepresentations()</text>
<text text-anchor="start" x="948" y="-246.8" font-family="Times New Roman,serif" font-size="14.00">&#45; mutate(child: Representation): Representation</text>
<text text-anchor="start" x="948" y="-222.8" font-family="Times New Roman,serif" font-size="14.00">&#45; randomRecombination(): Representation</text>
<polygon fill="black" stroke="black" points="943,-575.4 943,-575.4 1500,-575.4 1500,-575.4 943,-575.4"/>
<polygon fill="black" stroke="black" points="943,-407.4 943,-407.4 1500,-407.4 1500,-407.4 943,-407.4"/>
<polygon fill="none" stroke="black" points="942.5,-214.4 942.5,-600.4 1499.5,-600.4 1499.5,-214.4 942.5,-214.4"/>
</g>
<!-- Hillclimbing1061971300&#45;&gt;Detours1061971300 -->
<g id="edge1" class="edge">
<title>Hillclimbing1061971300&#45;&gt;Detours1061971300</title>
<path fill="none" stroke="black" d="M942.3,-306.89C775.15,-247.22 569.48,-173.78 434.31,-125.52"/>
<polygon fill="black" stroke="black" points="435.3,-122.16 424.7,-122.09 432.94,-128.75 435.3,-122.16"/>
<text text-anchor="middle" x="651.61" y="-183.8" font-family="Times New Roman,serif" font-size="14.00">detours</text>
<text text-anchor="middle" x="651.61" y="-167" font-family="Times New Roman,serif" font-size="14.00">[0..1]</text>
</g>
<!-- Hillclimbing1061971300&#45;&gt;EvaluationFunction633410066 -->
<g id="edge2" class="edge">
<title>Hillclimbing1061971300&#45;&gt;EvaluationFunction633410066</title>
<path fill="none" stroke="black" d="M1002.48,-214.24C966.92,-182.97 932.78,-152.95 905.29,-128.77"/>
<polygon fill="black" stroke="black" points="907.53,-126.09 897.71,-122.11 902.91,-131.34 907.53,-126.09"/>
<text text-anchor="middle" x="1035.05" y="-183.8" font-family="Times New Roman,serif" font-size="14.00">evaluationFunction</text>
<text text-anchor="middle" x="1035.05" y="-167" font-family="Times New Roman,serif" font-size="14.00">[0..1]</text>
</g>
<!-- MovementSpeed2068682212 -->
<g id="node4" class="node">
<title>MovementSpeed2068682212</title>
<polygon fill="#f1e5fd" stroke="transparent" points="1311.5,-122 1130.5,-122 1130.5,-24 1311.5,-24 1311.5,-122"/>
<text text-anchor="start" x="1136" y="-104.4" font-family="Times New Roman,serif" font-size="14.00">(I)MovementSpeed</text>
<text text-anchor="start" x="1136" y="-80.4" font-family="Times New Roman,serif" font-size="14.00">+ getClimbingSpeed(): Pace</text>
<text text-anchor="start" x="1135.53" y="-56.4" font-family="Times New Roman,serif" font-size="14.00">+ getDescendingSpeed(): Pace</text>
<text text-anchor="start" x="1136" y="-32.4" font-family="Times New Roman,serif" font-size="14.00">+ getHorizontalSpeed(): Pace</text>
<polygon fill="black" stroke="black" points="1131,-97 1131,-97 1312,-97 1312,-97 1131,-97"/>
<polygon fill="none" stroke="black" points="1130.5,-24 1130.5,-122 1311.5,-122 1311.5,-24 1130.5,-24"/>
</g>
<!-- Hillclimbing1061971300&#45;&gt;MovementSpeed2068682212 -->
<g id="edge4" class="edge">
<title>Hillclimbing1061971300&#45;&gt;MovementSpeed2068682212</title>
<path fill="none" stroke="black" d="M1221,-214C1221,-184.24 1221,-155.62 1221,-132.11"/>
<polygon fill="black" stroke="black" points="1224.5,-132.01 1221,-122.01 1217.5,-132.01 1224.5,-132.01"/>
<text text-anchor="middle" x="1267.66" y="-183.8" font-family="Times New Roman,serif" font-size="14.00">movementSpeed</text>
<text text-anchor="middle" x="1267.66" y="-167" font-family="Times New Roman,serif" font-size="14.00">[0..1]</text>
</g>
<!-- Representation1061971300 -->
<g id="node5" class="node">
<title>Representation1061971300</title>
<polygon fill="#ffffff" stroke="transparent" points="1660.5,-122 1329.5,-122 1329.5,-24 1660.5,-24 1660.5,-122"/>
<text text-anchor="start" x="1335" y="-104.4" font-family="Times New Roman,serif" font-size="14.00">(C)Representation</text>
<text text-anchor="start" x="1335" y="-80.4" font-family="Times New Roman,serif" font-size="14.00"># &#160;&#160;bitString: boolean[] [0..*]</text>
<text text-anchor="start" x="1335" y="-56.4" font-family="Times New Roman,serif" font-size="14.00">+ bitFlip(): Representation</text>
<text text-anchor="start" x="1334.7" y="-32.4" font-family="Times New Roman,serif" font-size="14.00">+ crossover(otherParent: Representation): Representation</text>
<polygon fill="black" stroke="black" points="1330,-97 1330,-97 1661,-97 1661,-97 1330,-97"/>
<polygon fill="black" stroke="black" points="1330,-73 1330,-73 1661,-73 1661,-73 1330,-73"/>
<polygon fill="none" stroke="black" points="1329.5,-24 1329.5,-122 1660.5,-122 1660.5,-24 1329.5,-24"/>
</g>
<!-- Hillclimbing1061971300&#45;&gt;Representation1061971300 -->
<g id="edge5" class="edge">
<title>Hillclimbing1061971300&#45;&gt;Representation1061971300</title>
<path fill="none" stroke="black" d="M1379.59,-214C1404.9,-183.3 1429.2,-153.83 1448.91,-129.91"/>
<polygon fill="black" stroke="black" points="1451.76,-131.96 1455.42,-122.01 1446.36,-127.5 1451.76,-131.96"/>
<text text-anchor="middle" x="1463.37" y="-183.8" font-family="Times New Roman,serif" font-size="14.00">representations</text>
<text text-anchor="middle" x="1463.37" y="-167" font-family="Times New Roman,serif" font-size="14.00">[0..*]</text>
</g>
<!-- Location1401884610 -->
<g id="node6" class="node">
<title>Location1401884610</title>
<polygon fill="#f1e5fd" stroke="transparent" points="1820.5,-122 1685.5,-122 1685.5,-24 1820.5,-24 1820.5,-122"/>
<text text-anchor="start" x="1691" y="-104.4" font-family="Times New Roman,serif" font-size="14.00">(I)Location</text>
<text text-anchor="start" x="1691" y="-80.4" font-family="Times New Roman,serif" font-size="14.00">+ getEle(): Elevation</text>
<text text-anchor="start" x="1691" y="-56.4" font-family="Times New Roman,serif" font-size="14.00">+ getLat(): Latitude</text>
<text text-anchor="start" x="1690.84" y="-32.4" font-family="Times New Roman,serif" font-size="14.00">+ getLon(): Longitude</text>
<polygon fill="black" stroke="black" points="1686,-97 1686,-97 1821,-97 1821,-97 1686,-97"/>
<polygon fill="none" stroke="black" points="1685.5,-24 1685.5,-122 1820.5,-122 1820.5,-24 1685.5,-24"/>
</g>
<!-- Hillclimbing1061971300&#45;&gt;Location1401884610 -->
<g id="edge3" class="edge">
<title>Hillclimbing1061971300&#45;&gt;Location1401884610</title>
<path fill="none" stroke="black" d="M1499.54,-251.36C1592.55,-199.58 1673,-154.8 1673,-154.8 1673,-154.8 1683.91,-143.78 1697.67,-129.89"/>
<polygon fill="black" stroke="black" points="1700.53,-131.97 1705.08,-122.4 1695.56,-127.04 1700.53,-131.97"/>
<text text-anchor="middle" x="1670.16" y="-183.8" font-family="Times New Roman,serif" font-size="14.00">path</text>
<text text-anchor="middle" x="1670.16" y="-167" font-family="Times New Roman,serif" font-size="14.00">[0..*]</text>
</g>
</g>
</svg>
