<?xml version="1.0" encoding="UTF-8" standalone="no"?>
<!DOCTYPE svg PUBLIC "-//W3C//DTD SVG 1.1//EN"
 "http://www.w3.org/Graphics/SVG/1.1/DTD/svg11.dtd">
<!-- Generated by graphviz version 2.44.1 (20200629.0846)
 -->
<!-- Title: g Pages: 1 -->
<svg width="1778pt" height="858pt"
 viewBox="0.00 0.00 1778.00 858.40" xmlns="http://www.w3.org/2000/svg" xmlns:xlink="http://www.w3.org/1999/xlink">
<g id="graph0" class="graph" transform="scale(1 1) rotate(0) translate(4 854.4)">
<title>g</title>
<polygon fill="white" stroke="transparent" points="-4,4 -4,-854.4 1774,-854.4 1774,4 -4,4"/>
<g id="clust3" class="cluster">
<title>cluster_1901307053</title>
<polygon fill="#ececec" stroke="black" points="128,-8 128,-307.6 943,-307.6 943,-8 128,-8"/>
<text text-anchor="middle" x="154.28" y="-291" font-family="Times New Roman,serif" font-size="14.00">Plugin</text>
</g>
<g id="clust4" class="cluster">
<title>cluster_1723619061</title>
<polygon fill="#d8d8d8" stroke="black" points="136,-16 136,-274.8 682,-274.8 682,-16 136,-16"/>
<text text-anchor="middle" x="165" y="-258.2" font-family="Times New Roman,serif" font-size="14.00">Parsing</text>
</g>
<g id="clust1" class="cluster">
<title>cluster_1072845520</title>
<polygon fill="#ececec" stroke="black" points="8,-359.2 8,-842.4 1762,-842.4 1762,-359.2 8,-359.2"/>
<text text-anchor="middle" x="49.05" y="-825.8" font-family="Times New Roman,serif" font-size="14.00">Application</text>
</g>
<g id="clust2" class="cluster">
<title>cluster_899390013</title>
<polygon fill="#d8d8d8" stroke="black" points="16,-646.8 16,-809.6 1754,-809.6 1754,-646.8 16,-646.8"/>
<text text-anchor="middle" x="57.05" y="-793" font-family="Times New Roman,serif" font-size="14.00">Instructions</text>
</g>
<!-- UserInput402627690 -->
<g id="node1" class="node">
<title>UserInput402627690</title>
<polygon fill="#f1e5fd" stroke="transparent" points="921.5,-585.2 392.5,-585.2 392.5,-367.2 921.5,-367.2 921.5,-585.2"/>
<text text-anchor="start" x="398" y="-567.6" font-family="Times New Roman,serif" font-size="14.00">(I)UserInput</text>
<text text-anchor="start" x="398" y="-543.6" font-family="Times New Roman,serif" font-size="14.00">+ getGranularity(): int</text>
<text text-anchor="start" x="398" y="-519.6" font-family="Times New Roman,serif" font-size="14.00">+ getInstruction(instructions: Instruction[]): Instruction</text>
<text text-anchor="start" x="397.91" y="-495.6" font-family="Times New Roman,serif" font-size="14.00">+ parseEvaluationFunction(evaluationFunctions: EvaluationFunction[]): EvaluationFunction</text>
<text text-anchor="start" x="398" y="-471.6" font-family="Times New Roman,serif" font-size="14.00">+ parseMaxDuration(): Duration</text>
<text text-anchor="start" x="398" y="-447.6" font-family="Times New Roman,serif" font-size="14.00">+ parseMovementSpeed(): MovementSpeed</text>
<text text-anchor="start" x="398" y="-423.6" font-family="Times New Roman,serif" font-size="14.00">+ pathsToMovementSpeeds(): MovementSpeed</text>
<text text-anchor="start" x="398" y="-399.6" font-family="Times New Roman,serif" font-size="14.00">+ readPath(): String</text>
<text text-anchor="start" x="398" y="-375.6" font-family="Times New Roman,serif" font-size="14.00">+ readPaths(): String[]</text>
<polygon fill="black" stroke="black" points="393,-560.2 393,-560.2 922,-560.2 922,-560.2 393,-560.2"/>
<polygon fill="none" stroke="black" points="392.5,-367.2 392.5,-585.2 921.5,-585.2 921.5,-367.2 392.5,-367.2"/>
</g>
<!-- ConsoleParsing880033487 -->
<g id="node9" class="node">
<title>ConsoleParsing880033487</title>
<polygon fill="#ffffff" stroke="transparent" points="673.5,-242 144.5,-242 144.5,-24 673.5,-24 673.5,-242"/>
<text text-anchor="start" x="150" y="-224.4" font-family="Times New Roman,serif" font-size="14.00">(C)ConsoleParsing</text>
<text text-anchor="start" x="150" y="-200.4" font-family="Times New Roman,serif" font-size="14.00"># &#160;&#160;userOutput: UserOutput [0..1]</text>
<text text-anchor="start" x="150" y="-176.4" font-family="Times New Roman,serif" font-size="14.00">+ getInstruction(instructions: Instruction[]): Instruction</text>
<text text-anchor="start" x="149.91" y="-152.4" font-family="Times New Roman,serif" font-size="14.00">+ parseEvaluationFunction(evaluationFunctions: EvaluationFunction[]): EvaluationFunction</text>
<text text-anchor="start" x="150" y="-128.4" font-family="Times New Roman,serif" font-size="14.00">+ parseMaxDuration(): Duration</text>
<text text-anchor="start" x="150" y="-104.4" font-family="Times New Roman,serif" font-size="14.00">+ parseMovementSpeed(): MovementSpeed</text>
<text text-anchor="start" x="150" y="-80.4" font-family="Times New Roman,serif" font-size="14.00">+ pathsToMovementSpeeds(): MovementSpeed</text>
<text text-anchor="start" x="150" y="-56.4" font-family="Times New Roman,serif" font-size="14.00">+ readPath(): String</text>
<text text-anchor="start" x="150" y="-32.4" font-family="Times New Roman,serif" font-size="14.00">+ readPaths(): String[]</text>
<polygon fill="black" stroke="black" points="145,-217 145,-217 674,-217 674,-217 145,-217"/>
<polygon fill="black" stroke="black" points="145,-193 145,-193 674,-193 674,-193 145,-193"/>
<polygon fill="none" stroke="black" points="144.5,-24 144.5,-242 673.5,-242 673.5,-24 144.5,-24"/>
</g>
<!-- UserInput402627690&#45;&gt;ConsoleParsing880033487 -->
<g id="edge8" class="edge">
<title>UserInput402627690&#45;&gt;ConsoleParsing880033487</title>
<path fill="none" stroke="black" d="M572.03,-358.3C544.67,-320.66 514.49,-279.13 487.6,-242.14"/>
<polygon fill="none" stroke="black" points="569.48,-360.74 578.19,-366.77 575.14,-356.63 569.48,-360.74"/>
</g>
<!-- GetElevationProfile1197983005 -->
<g id="node2" class="node">
<title>GetElevationProfile1197983005</title>
<polygon fill="#ffffff" stroke="transparent" points="220,-764.8 24,-764.8 24,-666.8 220,-666.8 220,-764.8"/>
<text text-anchor="start" x="29" y="-747.2" font-family="Times New Roman,serif" font-size="14.00">(C)GetElevationProfile</text>
<text text-anchor="start" x="29" y="-723.2" font-family="Times New Roman,serif" font-size="14.00"># &#160;&#160;userInput: UserInput [0..1]</text>
<text text-anchor="start" x="28.88" y="-699.2" font-family="Times New Roman,serif" font-size="14.00"># &#160;&#160;userOutput: UserOutput [0..1]</text>
<text text-anchor="start" x="29" y="-675.2" font-family="Times New Roman,serif" font-size="14.00">+ execute(state: State): State</text>
<polygon fill="black" stroke="black" points="24,-739.8 24,-739.8 220,-739.8 220,-739.8 24,-739.8"/>
<polygon fill="black" stroke="black" points="24,-691.8 24,-691.8 220,-691.8 220,-691.8 24,-691.8"/>
<polygon fill="none" stroke="black" points="24,-666.8 24,-764.8 220,-764.8 220,-666.8 24,-666.8"/>
</g>
<!-- GetElevationProfile1197983005&#45;&gt;UserInput402627690 -->
<g id="edge2" class="edge">
<title>GetElevationProfile1197983005&#45;&gt;UserInput402627690</title>
<path fill="none" stroke="black" d="M197.76,-666.65C215.33,-655.49 229,-646.8 229,-646.8 229,-646.8 299.28,-618.95 382.88,-585.82"/>
<polygon fill="black" stroke="black" points="384.33,-589.01 392.33,-582.08 381.75,-582.51 384.33,-589.01"/>
<text text-anchor="middle" x="358.44" y="-624.2" font-family="Times New Roman,serif" font-size="14.00">userInput</text>
<text text-anchor="middle" x="358.44" y="-607.4" font-family="Times New Roman,serif" font-size="14.00">[0..1]</text>
</g>
<!-- GetSpeedProfile1197983005 -->
<g id="node3" class="node">
<title>GetSpeedProfile1197983005</title>
<polygon fill="#ffffff" stroke="transparent" points="434,-764.8 238,-764.8 238,-666.8 434,-666.8 434,-764.8"/>
<text text-anchor="start" x="243" y="-747.2" font-family="Times New Roman,serif" font-size="14.00">(C)GetSpeedProfile</text>
<text text-anchor="start" x="243" y="-723.2" font-family="Times New Roman,serif" font-size="14.00"># &#160;&#160;userInput: UserInput [0..1]</text>
<text text-anchor="start" x="242.88" y="-699.2" font-family="Times New Roman,serif" font-size="14.00"># &#160;&#160;userOutput: UserOutput [0..1]</text>
<text text-anchor="start" x="243" y="-675.2" font-family="Times New Roman,serif" font-size="14.00">+ execute(state: State): State</text>
<polygon fill="black" stroke="black" points="238,-739.8 238,-739.8 434,-739.8 434,-739.8 238,-739.8"/>
<polygon fill="black" stroke="black" points="238,-691.8 238,-691.8 434,-691.8 434,-691.8 238,-691.8"/>
<polygon fill="none" stroke="black" points="238,-666.8 238,-764.8 434,-764.8 434,-666.8 238,-666.8"/>
</g>
<!-- GetSpeedProfile1197983005&#45;&gt;UserInput402627690 -->
<g id="edge3" class="edge">
<title>GetSpeedProfile1197983005&#45;&gt;UserInput402627690</title>
<path fill="none" stroke="black" d="M400.96,-666.72C430.51,-644.85 466.85,-617.94 502.78,-591.35"/>
<polygon fill="black" stroke="black" points="504.96,-594.09 510.92,-585.33 500.8,-588.47 504.96,-594.09"/>
<text text-anchor="middle" x="503.44" y="-624.2" font-family="Times New Roman,serif" font-size="14.00">userInput</text>
<text text-anchor="middle" x="503.44" y="-607.4" font-family="Times New Roman,serif" font-size="14.00">[0..1]</text>
</g>
<!-- PMSFromFiles1197983005 -->
<g id="node4" class="node">
<title>PMSFromFiles1197983005</title>
<polygon fill="#ffffff" stroke="transparent" points="648,-764.8 452,-764.8 452,-666.8 648,-666.8 648,-764.8"/>
<text text-anchor="start" x="457" y="-747.2" font-family="Times New Roman,serif" font-size="14.00">(C)PMSFromFiles</text>
<text text-anchor="start" x="457" y="-723.2" font-family="Times New Roman,serif" font-size="14.00"># &#160;&#160;userInput: UserInput [0..1]</text>
<text text-anchor="start" x="456.88" y="-699.2" font-family="Times New Roman,serif" font-size="14.00"># &#160;&#160;userOutput: UserOutput [0..1]</text>
<text text-anchor="start" x="457" y="-675.2" font-family="Times New Roman,serif" font-size="14.00">+ execute(state: State): State</text>
<polygon fill="black" stroke="black" points="452,-739.8 452,-739.8 648,-739.8 648,-739.8 452,-739.8"/>
<polygon fill="black" stroke="black" points="452,-691.8 452,-691.8 648,-691.8 648,-691.8 452,-691.8"/>
<polygon fill="none" stroke="black" points="452,-666.8 452,-764.8 648,-764.8 648,-666.8 452,-666.8"/>
</g>
<!-- PMSFromFiles1197983005&#45;&gt;UserInput402627690 -->
<g id="edge4" class="edge">
<title>PMSFromFiles1197983005&#45;&gt;UserInput402627690</title>
<path fill="none" stroke="black" d="M571.65,-666.72C581.06,-645.83 592.54,-620.34 603.98,-594.93"/>
<polygon fill="black" stroke="black" points="607.28,-596.13 608.19,-585.58 600.9,-593.26 607.28,-596.13"/>
<text text-anchor="middle" x="623.44" y="-624.2" font-family="Times New Roman,serif" font-size="14.00">userInput</text>
<text text-anchor="middle" x="623.44" y="-607.4" font-family="Times New Roman,serif" font-size="14.00">[0..1]</text>
</g>
<!-- PredictTime1197983005 -->
<g id="node5" class="node">
<title>PredictTime1197983005</title>
<polygon fill="#ffffff" stroke="transparent" points="862,-764.8 666,-764.8 666,-666.8 862,-666.8 862,-764.8"/>
<text text-anchor="start" x="671" y="-747.2" font-family="Times New Roman,serif" font-size="14.00">(C)PredictTime</text>
<text text-anchor="start" x="671" y="-723.2" font-family="Times New Roman,serif" font-size="14.00"># &#160;&#160;userInput: UserInput [0..1]</text>
<text text-anchor="start" x="670.88" y="-699.2" font-family="Times New Roman,serif" font-size="14.00"># &#160;&#160;userOutput: UserOutput [0..1]</text>
<text text-anchor="start" x="671" y="-675.2" font-family="Times New Roman,serif" font-size="14.00">+ execute(state: State): State</text>
<polygon fill="black" stroke="black" points="666,-739.8 666,-739.8 862,-739.8 862,-739.8 666,-739.8"/>
<polygon fill="black" stroke="black" points="666,-691.8 666,-691.8 862,-691.8 862,-691.8 666,-691.8"/>
<polygon fill="none" stroke="black" points="666,-666.8 666,-764.8 862,-764.8 862,-666.8 666,-666.8"/>
</g>
<!-- PredictTime1197983005&#45;&gt;UserInput402627690 -->
<g id="edge5" class="edge">
<title>PredictTime1197983005&#45;&gt;UserInput402627690</title>
<path fill="none" stroke="black" d="M742.35,-666.72C732.94,-645.83 721.46,-620.34 710.02,-594.93"/>
<polygon fill="black" stroke="black" points="713.1,-593.26 705.81,-585.58 706.72,-596.13 713.1,-593.26"/>
<text text-anchor="middle" x="752.44" y="-624.2" font-family="Times New Roman,serif" font-size="14.00">userInput</text>
<text text-anchor="middle" x="752.44" y="-607.4" font-family="Times New Roman,serif" font-size="14.00">[0..1]</text>
</g>
<!-- ReadPath1197983005 -->
<g id="node6" class="node">
<title>ReadPath1197983005</title>
<polygon fill="#ffffff" stroke="transparent" points="1076,-764.8 880,-764.8 880,-666.8 1076,-666.8 1076,-764.8"/>
<text text-anchor="start" x="885" y="-747.2" font-family="Times New Roman,serif" font-size="14.00">(C)ReadPath</text>
<text text-anchor="start" x="885" y="-723.2" font-family="Times New Roman,serif" font-size="14.00"># &#160;&#160;userInput: UserInput [0..1]</text>
<text text-anchor="start" x="884.88" y="-699.2" font-family="Times New Roman,serif" font-size="14.00"># &#160;&#160;userOutput: UserOutput [0..1]</text>
<text text-anchor="start" x="885" y="-675.2" font-family="Times New Roman,serif" font-size="14.00">+ execute(state: State): State</text>
<polygon fill="black" stroke="black" points="880,-739.8 880,-739.8 1076,-739.8 1076,-739.8 880,-739.8"/>
<polygon fill="black" stroke="black" points="880,-691.8 880,-691.8 1076,-691.8 1076,-691.8 880,-691.8"/>
<polygon fill="none" stroke="black" points="880,-666.8 880,-764.8 1076,-764.8 1076,-666.8 880,-666.8"/>
</g>
<!-- ReadPath1197983005&#45;&gt;UserInput402627690 -->
<g id="edge6" class="edge">
<title>ReadPath1197983005&#45;&gt;UserInput402627690</title>
<path fill="none" stroke="black" d="M913.04,-666.72C883.49,-644.85 847.15,-617.94 811.22,-591.35"/>
<polygon fill="black" stroke="black" points="813.2,-588.47 803.08,-585.33 809.04,-594.09 813.2,-588.47"/>
<text text-anchor="middle" x="891.44" y="-624.2" font-family="Times New Roman,serif" font-size="14.00">userInput</text>
<text text-anchor="middle" x="891.44" y="-607.4" font-family="Times New Roman,serif" font-size="14.00">[0..1]</text>
</g>
<!-- SplitTour1197983005 -->
<g id="node7" class="node">
<title>SplitTour1197983005</title>
<polygon fill="#ffffff" stroke="transparent" points="1745.5,-776.8 1094.5,-776.8 1094.5,-654.8 1745.5,-654.8 1745.5,-776.8"/>
<text text-anchor="start" x="1100" y="-759.2" font-family="Times New Roman,serif" font-size="14.00">(C)SplitTour</text>
<text text-anchor="start" x="1100" y="-735.2" font-family="Times New Roman,serif" font-size="14.00"># &#160;&#160;userInput: UserInput [0..1]</text>
<text text-anchor="start" x="1100" y="-711.2" font-family="Times New Roman,serif" font-size="14.00"># &#160;&#160;userOutput: UserOutput [0..1]</text>
<text text-anchor="start" x="1100" y="-687.2" font-family="Times New Roman,serif" font-size="14.00">+ execute(state: State): State</text>
<text text-anchor="start" x="1099.75" y="-663.2" font-family="Times New Roman,serif" font-size="14.00">&#45; generateEvaluationFunctions(movementSpeed: MovementSpeed, maxDuration: Duration): EvaluationFunction[]</text>
<polygon fill="black" stroke="black" points="1095,-751.8 1095,-751.8 1746,-751.8 1746,-751.8 1095,-751.8"/>
<polygon fill="black" stroke="black" points="1095,-703.8 1095,-703.8 1746,-703.8 1746,-703.8 1095,-703.8"/>
<polygon fill="none" stroke="black" points="1094.5,-654.8 1094.5,-776.8 1745.5,-776.8 1745.5,-654.8 1094.5,-654.8"/>
</g>
<!-- SplitTour1197983005&#45;&gt;UserInput402627690 -->
<g id="edge7" class="edge">
<title>SplitTour1197983005&#45;&gt;UserInput402627690</title>
<path fill="none" stroke="black" d="M1226.97,-654.69C1137.35,-626.78 1029.21,-593.11 931.31,-562.62"/>
<polygon fill="black" stroke="black" points="932.15,-559.22 921.56,-559.59 930.07,-565.9 932.15,-559.22"/>
<text text-anchor="middle" x="1177.44" y="-624.2" font-family="Times New Roman,serif" font-size="14.00">userInput</text>
<text text-anchor="middle" x="1177.44" y="-607.4" font-family="Times New Roman,serif" font-size="14.00">[0..1]</text>
</g>
<!-- Console1374765779 -->
<g id="node8" class="node">
<title>Console1374765779</title>
<polygon fill="#ffffff" stroke="transparent" points="934.5,-218 691.5,-218 691.5,-48 934.5,-48 934.5,-218"/>
<text text-anchor="start" x="697" y="-200.4" font-family="Times New Roman,serif" font-size="14.00">(C)Console</text>
<text text-anchor="start" x="696.67" y="-176.4" font-family="Times New Roman,serif" font-size="14.00"># &#160;&#160;consoleInformation: UserOutput [0..1]</text>
<text text-anchor="start" x="697" y="-152.4" font-family="Times New Roman,serif" font-size="14.00"># &#160;&#160;consoleParsing: UserInput [0..1]</text>
<text text-anchor="start" x="697" y="-128.4" font-family="Times New Roman,serif" font-size="14.00"># &#160;&#160;instructions: Instruction[] [0..*]</text>
<text text-anchor="start" x="697" y="-104.4" font-family="Times New Roman,serif" font-size="14.00"># &#160;&#160;state: State [0..1]</text>
<text text-anchor="start" x="697" y="-80.4" font-family="Times New Roman,serif" font-size="14.00">&#45; generateInstructions()</text>
<text text-anchor="start" x="697" y="-56.4" font-family="Times New Roman,serif" font-size="14.00">&#45; handler()</text>
<polygon fill="black" stroke="black" points="692,-193 692,-193 935,-193 935,-193 692,-193"/>
<polygon fill="black" stroke="black" points="692,-97 692,-97 935,-97 935,-97 692,-97"/>
<polygon fill="none" stroke="black" points="691.5,-48 691.5,-218 934.5,-218 934.5,-48 691.5,-48"/>
</g>
<!-- Console1374765779&#45;&gt;UserInput402627690 -->
<g id="edge1" class="edge">
<title>Console1374765779&#45;&gt;UserInput402627690</title>
<path fill="none" stroke="black" d="M774.57,-218.06C755.33,-260.13 731.73,-311.75 710.74,-357.67"/>
<polygon fill="black" stroke="black" points="707.55,-356.22 706.57,-366.77 713.91,-359.13 707.55,-356.22"/>
<text text-anchor="middle" x="767.38" y="-336.6" font-family="Times New Roman,serif" font-size="14.00">consoleParsing</text>
<text text-anchor="middle" x="767.38" y="-319.8" font-family="Times New Roman,serif" font-size="14.00">[0..1]</text>
</g>
</g>
</svg>
