<?xml version="1.0" encoding="UTF-8" standalone="no"?>
<!DOCTYPE svg PUBLIC "-//W3C//DTD SVG 1.1//EN"
 "http://www.w3.org/Graphics/SVG/1.1/DTD/svg11.dtd">
<!-- Generated by graphviz version 2.44.1 (20200629.0846)
 -->
<!-- Title: g Pages: 1 -->
<svg width="516pt" height="904pt"
 viewBox="0.00 0.00 516.00 904.40" xmlns="http://www.w3.org/2000/svg" xmlns:xlink="http://www.w3.org/1999/xlink">
<g id="graph0" class="graph" transform="scale(1 1) rotate(0) translate(4 900.4)">
<title>g</title>
<polygon fill="white" stroke="transparent" points="-4,4 -4,-900.4 512,-900.4 512,4 -4,4"/>
<g id="clust1" class="cluster">
<title>cluster_2052636900</title>
<polygon fill="#ececec" stroke="black" points="8,-8 8,-888.4 500,-888.4 500,-8 8,-8"/>
<text text-anchor="middle" x="38.55" y="-871.8" font-family="Times New Roman,serif" font-size="14.00">Domain</text>
</g>
<g id="clust2" class="cluster">
<title>cluster_518132580</title>
<polygon fill="#d8d8d8" stroke="black" points="16,-16 16,-855.6 492,-855.6 492,-16 16,-16"/>
<text text-anchor="middle" x="55.49" y="-839" font-family="Times New Roman,serif" font-size="14.00">WayModel</text>
</g>
<!-- Elevation1287502635 -->
<g id="node1" class="node">
<title>Elevation1287502635</title>
<polygon fill="#ffffff" stroke="transparent" points="208,-98 24,-98 24,-24 208,-24 208,-98"/>
<text text-anchor="start" x="29" y="-80.4" font-family="Times New Roman,serif" font-size="14.00">(C)Elevation</text>
<text text-anchor="start" x="29" y="-56.4" font-family="Times New Roman,serif" font-size="14.00">&#45; &#160;&#160;value: double [1]</text>
<text text-anchor="start" x="28.66" y="-32.4" font-family="Times New Roman,serif" font-size="14.00">+ compareTo(o: Elevation): int</text>
<polygon fill="black" stroke="black" points="24,-73 24,-73 208,-73 208,-73 24,-73"/>
<polygon fill="black" stroke="black" points="24,-49 24,-49 208,-49 208,-49 24,-49"/>
<polygon fill="none" stroke="black" points="24,-24 24,-98 208,-98 208,-24 24,-24"/>
</g>
<!-- Latitude1287502635 -->
<g id="node2" class="node">
<title>Latitude1287502635</title>
<polygon fill="#ffffff" stroke="transparent" points="346,-86 226,-86 226,-36 346,-36 346,-86"/>
<text text-anchor="start" x="231" y="-68.4" font-family="Times New Roman,serif" font-size="14.00">(C)Latitude</text>
<text text-anchor="start" x="230.6" y="-44.4" font-family="Times New Roman,serif" font-size="14.00">&#45; &#160;&#160;value: double [1]</text>
<polygon fill="black" stroke="black" points="226,-61 226,-61 346,-61 346,-61 226,-61"/>
<polygon fill="none" stroke="black" points="226,-36 226,-86 346,-86 346,-36 226,-36"/>
</g>
<!-- Location136783562 -->
<g id="node3" class="node">
<title>Location136783562</title>
<polygon fill="#f1e5fd" stroke="transparent" points="353.5,-544.2 218.5,-544.2 218.5,-446.2 353.5,-446.2 353.5,-544.2"/>
<text text-anchor="start" x="224" y="-526.6" font-family="Times New Roman,serif" font-size="14.00">(I)Location</text>
<text text-anchor="start" x="224" y="-502.6" font-family="Times New Roman,serif" font-size="14.00">+ getEle(): Elevation</text>
<text text-anchor="start" x="224" y="-478.6" font-family="Times New Roman,serif" font-size="14.00">+ getLat(): Latitude</text>
<text text-anchor="start" x="223.84" y="-454.6" font-family="Times New Roman,serif" font-size="14.00">+ getLon(): Longitude</text>
<polygon fill="black" stroke="black" points="219,-519.2 219,-519.2 354,-519.2 354,-519.2 219,-519.2"/>
<polygon fill="none" stroke="black" points="218.5,-446.2 218.5,-544.2 353.5,-544.2 353.5,-446.2 218.5,-446.2"/>
</g>
<!-- TourPoint136783562 -->
<g id="node6" class="node">
<title>TourPoint136783562</title>
<polygon fill="#ffffff" stroke="transparent" points="266.5,-409.2 87.5,-409.2 87.5,-335.2 266.5,-335.2 266.5,-409.2"/>
<text text-anchor="start" x="93" y="-391.6" font-family="Times New Roman,serif" font-size="14.00">(C)TourPoint</text>
<text text-anchor="start" x="92.95" y="-367.6" font-family="Times New Roman,serif" font-size="14.00">&#45; &#160;&#160;time: LocalDateTime [0..1]</text>
<text text-anchor="start" x="93" y="-343.6" font-family="Times New Roman,serif" font-size="14.00">&#45; &#160;&#160;tp: TrackPoint [0..1]</text>
<polygon fill="black" stroke="black" points="88,-384.2 88,-384.2 267,-384.2 267,-384.2 88,-384.2"/>
<polygon fill="none" stroke="black" points="87.5,-335.2 87.5,-409.2 266.5,-409.2 266.5,-335.2 87.5,-335.2"/>
</g>
<!-- Location136783562&#45;&gt;TourPoint136783562 -->
<g id="edge1" class="edge">
<title>Location136783562&#45;&gt;TourPoint136783562</title>
<path fill="none" stroke="black" d="M235.82,-438.49C226.87,-428.56 217.78,-418.46 209.49,-409.27"/>
<polygon fill="none" stroke="black" points="233.31,-440.94 242.61,-446.03 238.51,-436.26 233.31,-440.94"/>
</g>
<!-- TrackPoint136783562 -->
<g id="node8" class="node">
<title>TrackPoint136783562</title>
<polygon fill="#ffffff" stroke="transparent" points="356.5,-265.6 215.5,-265.6 215.5,-167.6 356.5,-167.6 356.5,-265.6"/>
<text text-anchor="start" x="221" y="-248" font-family="Times New Roman,serif" font-size="14.00">(C)TrackPoint</text>
<text text-anchor="start" x="221" y="-224" font-family="Times New Roman,serif" font-size="14.00">&#45; &#160;&#160;ele: Elevation [0..1]</text>
<text text-anchor="start" x="221" y="-200" font-family="Times New Roman,serif" font-size="14.00">&#45; &#160;&#160;lat: Latitude [0..1]</text>
<text text-anchor="start" x="220.59" y="-176" font-family="Times New Roman,serif" font-size="14.00">&#45; &#160;&#160;lon: Longitude [0..1]</text>
<polygon fill="black" stroke="black" points="216,-240.6 216,-240.6 357,-240.6 357,-240.6 216,-240.6"/>
<polygon fill="none" stroke="black" points="215.5,-167.6 215.5,-265.6 356.5,-265.6 356.5,-167.6 215.5,-167.6"/>
</g>
<!-- Location136783562&#45;&gt;TrackPoint136783562 -->
<g id="edge2" class="edge">
<title>Location136783562&#45;&gt;TrackPoint136783562</title>
<path fill="none" stroke="black" d="M286,-435.89C286,-385.32 286,-313.01 286,-265.69"/>
<polygon fill="none" stroke="black" points="282.5,-436.02 286,-446.02 289.5,-436.02 282.5,-436.02"/>
</g>
<!-- WayPoint136783562 -->
<g id="node9" class="node">
<title>WayPoint136783562</title>
<polygon fill="#ffffff" stroke="transparent" points="467,-409.2 305,-409.2 305,-335.2 467,-335.2 467,-409.2"/>
<text text-anchor="start" x="310" y="-391.6" font-family="Times New Roman,serif" font-size="14.00">(C)WayPoint</text>
<text text-anchor="start" x="309.6" y="-367.6" font-family="Times New Roman,serif" font-size="14.00">&#45; &#160;&#160;description: String [0..1]</text>
<text text-anchor="start" x="310" y="-343.6" font-family="Times New Roman,serif" font-size="14.00">&#45; &#160;&#160;tp: TrackPoint [0..1]</text>
<polygon fill="black" stroke="black" points="305,-384.2 305,-384.2 467,-384.2 467,-384.2 305,-384.2"/>
<polygon fill="none" stroke="black" points="305,-335.2 305,-409.2 467,-409.2 467,-335.2 305,-335.2"/>
</g>
<!-- Location136783562&#45;&gt;WayPoint136783562 -->
<g id="edge3" class="edge">
<title>Location136783562&#45;&gt;WayPoint136783562</title>
<path fill="none" stroke="black" d="M332.28,-438.2C340.41,-428.37 348.67,-418.37 356.19,-409.27"/>
<polygon fill="none" stroke="black" points="329.48,-436.09 325.81,-446.03 334.88,-440.55 329.48,-436.09"/>
</g>
<!-- Longitude1287502635 -->
<g id="node4" class="node">
<title>Longitude1287502635</title>
<polygon fill="#ffffff" stroke="transparent" points="484,-86 364,-86 364,-36 484,-36 484,-86"/>
<text text-anchor="start" x="369" y="-68.4" font-family="Times New Roman,serif" font-size="14.00">(C)Longitude</text>
<text text-anchor="start" x="368.6" y="-44.4" font-family="Times New Roman,serif" font-size="14.00">&#45; &#160;&#160;value: double [1]</text>
<polygon fill="black" stroke="black" points="364,-61 364,-61 484,-61 484,-61 364,-61"/>
<polygon fill="none" stroke="black" points="364,-36 364,-86 484,-86 484,-36 364,-36"/>
</g>
<!-- Path122780293 -->
<g id="node5" class="node">
<title>Path122780293</title>
<polygon fill="#f1e5fd" stroke="transparent" points="347,-822.8 71,-822.8 71,-772.8 347,-772.8 347,-822.8"/>
<text text-anchor="start" x="76" y="-805.2" font-family="Times New Roman,serif" font-size="14.00">(I)Path</text>
<text text-anchor="start" x="75.88" y="-781.2" font-family="Times New Roman,serif" font-size="14.00">+ getOrderedLocations(): ArrayList&lt;Location&gt;</text>
<polygon fill="black" stroke="black" points="71,-797.8 71,-797.8 347,-797.8 347,-797.8 71,-797.8"/>
<polygon fill="none" stroke="black" points="71,-772.8 71,-822.8 347,-822.8 347,-772.8 71,-772.8"/>
</g>
<!-- Path122780293&#45;&gt;Location136783562 -->
<g id="edge4" class="edge">
<title>Path122780293&#45;&gt;Location136783562</title>
<path fill="none" stroke="black" d="M192.18,-772.69C180.28,-755.64 166.44,-735.8 166.44,-735.8 166.44,-735.8 166.44,-613.8 166.44,-613.8 166.44,-613.8 204.01,-576.85 237.03,-544.37"/>
<text text-anchor="middle" x="194.78" y="-679" font-family="Times New Roman,serif" font-size="14.00">tourPoints</text>
<text text-anchor="middle" x="194.78" y="-662.2" font-family="Times New Roman,serif" font-size="14.00">[0..*]</text>
</g>
<!-- Track122780293 -->
<g id="node7" class="node">
<title>Track122780293</title>
<polygon fill="#ffffff" stroke="transparent" points="481.5,-735.8 232.5,-735.8 232.5,-613.8 481.5,-613.8 481.5,-735.8"/>
<text text-anchor="start" x="238" y="-718.2" font-family="Times New Roman,serif" font-size="14.00">(C)Track</text>
<text text-anchor="start" x="238" y="-694.2" font-family="Times New Roman,serif" font-size="14.00">&#45; &#160;&#160;description: String [0..1]</text>
<text text-anchor="start" x="237.83" y="-670.2" font-family="Times New Roman,serif" font-size="14.00">&#45; &#160;&#160;trackPoints: ArrayList&lt;Location&gt; [0..*]</text>
<text text-anchor="start" x="238" y="-646.2" font-family="Times New Roman,serif" font-size="14.00">+ addTrackPoint(t: TrackPoint)</text>
<text text-anchor="start" x="238" y="-622.2" font-family="Times New Roman,serif" font-size="14.00">+ addTrackPoints(t: TrackPoint[])</text>
<polygon fill="black" stroke="black" points="233,-710.8 233,-710.8 482,-710.8 482,-710.8 233,-710.8"/>
<polygon fill="black" stroke="black" points="233,-662.8 233,-662.8 482,-662.8 482,-662.8 233,-662.8"/>
<polygon fill="none" stroke="black" points="232.5,-613.8 232.5,-735.8 481.5,-735.8 481.5,-613.8 232.5,-613.8"/>
</g>
<!-- Path122780293&#45;&gt;Track122780293 -->
<g id="edge5" class="edge">
<title>Path122780293&#45;&gt;Track122780293</title>
<path fill="none" stroke="black" d="M246.52,-766.13C257.79,-756.91 270.57,-746.46 283.34,-736.02"/>
<polygon fill="none" stroke="black" points="244.12,-763.57 238.59,-772.6 248.55,-768.98 244.12,-763.57"/>
</g>
<!-- TourPoint136783562&#45;&gt;TrackPoint136783562 -->
<g id="edge6" class="edge">
<title>TourPoint136783562&#45;&gt;TrackPoint136783562</title>
<path fill="none" stroke="black" d="M202.56,-335.19C215.5,-316.95 231.51,-294.39 246.03,-273.93"/>
<polygon fill="black" stroke="black" points="249,-275.78 251.94,-265.6 243.29,-271.73 249,-275.78"/>
<text text-anchor="middle" x="253.16" y="-304.6" font-family="Times New Roman,serif" font-size="14.00">tp</text>
<text text-anchor="middle" x="253.16" y="-287.8" font-family="Times New Roman,serif" font-size="14.00">[0..1]</text>
</g>
<!-- Track122780293&#45;&gt;Location136783562 -->
<g id="edge7" class="edge">
<title>Track122780293&#45;&gt;Location136783562</title>
<path fill="none" stroke="black" d="M332.96,-613.67C325.22,-594.3 316.66,-572.89 308.99,-553.72"/>
<polygon fill="black" stroke="black" points="312.16,-552.2 305.19,-544.21 305.66,-554.79 312.16,-552.2"/>
<text text-anchor="middle" x="356.49" y="-583.2" font-family="Times New Roman,serif" font-size="14.00">trackPoints</text>
<text text-anchor="middle" x="356.49" y="-566.4" font-family="Times New Roman,serif" font-size="14.00">[0..*]</text>
</g>
<!-- TrackPoint136783562&#45;&gt;Elevation1287502635 -->
<g id="edge8" class="edge">
<title>TrackPoint136783562&#45;&gt;Elevation1287502635</title>
<path fill="none" stroke="black" d="M232.68,-167.42C210.47,-147.35 184.89,-124.24 163.35,-104.78"/>
<polygon fill="black" stroke="black" points="165.68,-102.17 155.91,-98.06 160.99,-107.36 165.68,-102.17"/>
<text text-anchor="middle" x="226.16" y="-137" font-family="Times New Roman,serif" font-size="14.00">ele</text>
<text text-anchor="middle" x="226.16" y="-120.2" font-family="Times New Roman,serif" font-size="14.00">[0..1]</text>
</g>
<!-- TrackPoint136783562&#45;&gt;Latitude1287502635 -->
<g id="edge9" class="edge">
<title>TrackPoint136783562&#45;&gt;Latitude1287502635</title>
<path fill="none" stroke="black" d="M286,-167.42C286,-144.39 286,-117.35 286,-96.43"/>
<polygon fill="black" stroke="black" points="289.5,-96.39 286,-86.39 282.5,-96.39 289.5,-96.39"/>
<text text-anchor="middle" x="301.16" y="-137" font-family="Times New Roman,serif" font-size="14.00">lat</text>
<text text-anchor="middle" x="301.16" y="-120.2" font-family="Times New Roman,serif" font-size="14.00">[0..1]</text>
</g>
<!-- TrackPoint136783562&#45;&gt;Longitude1287502635 -->
<g id="edge10" class="edge">
<title>TrackPoint136783562&#45;&gt;Longitude1287502635</title>
<path fill="none" stroke="black" d="M329.29,-167.42C350.83,-143.44 376.27,-115.12 395.36,-93.88"/>
<polygon fill="black" stroke="black" points="398.01,-96.17 402.09,-86.39 392.8,-91.49 398.01,-96.17"/>
<text text-anchor="middle" x="390.16" y="-137" font-family="Times New Roman,serif" font-size="14.00">lon</text>
<text text-anchor="middle" x="390.16" y="-120.2" font-family="Times New Roman,serif" font-size="14.00">[0..1]</text>
</g>
<!-- WayPoint136783562&#45;&gt;TrackPoint136783562 -->
<g id="edge11" class="edge">
<title>WayPoint136783562&#45;&gt;TrackPoint136783562</title>
<path fill="none" stroke="black" d="M362.55,-335.19C350.73,-317.03 336.13,-294.59 322.85,-274.2"/>
<polygon fill="black" stroke="black" points="325.64,-272.07 317.25,-265.6 319.77,-275.89 325.64,-272.07"/>
<text text-anchor="middle" x="365.16" y="-304.6" font-family="Times New Roman,serif" font-size="14.00">tp</text>
<text text-anchor="middle" x="365.16" y="-287.8" font-family="Times New Roman,serif" font-size="14.00">[0..1]</text>
</g>
</g>
</svg>
