<?xml version="1.0" encoding="UTF-8" standalone="no"?>
<!DOCTYPE svg PUBLIC "-//W3C//DTD SVG 1.1//EN"
 "http://www.w3.org/Graphics/SVG/1.1/DTD/svg11.dtd">
<!-- Generated by graphviz version 2.44.1 (20200629.0846)
 -->
<!-- Title: g Pages: 1 -->
<svg width="450pt" height="326pt"
 viewBox="0.00 0.00 450.00 326.40" xmlns="http://www.w3.org/2000/svg" xmlns:xlink="http://www.w3.org/1999/xlink">
<g id="graph0" class="graph" transform="scale(1 1) rotate(0) translate(4 322.4)">
<title>g</title>
<polygon fill="white" stroke="transparent" points="-4,4 -4,-322.4 446,-322.4 446,4 -4,4"/>
<g id="clust1" class="cluster">
<title>cluster_1072845520</title>
<polygon fill="#ececec" stroke="black" points="67,-219.6 67,-310.4 375,-310.4 375,-219.6 67,-219.6"/>
<text text-anchor="middle" x="108.05" y="-293.8" font-family="Times New Roman,serif" font-size="14.00">Application</text>
</g>
<g id="clust2" class="cluster">
<title>cluster_1901307053</title>
<polygon fill="#ececec" stroke="black" points="8,-8 8,-211.6 434,-211.6 434,-8 8,-8"/>
<text text-anchor="middle" x="34.28" y="-195" font-family="Times New Roman,serif" font-size="14.00">Plugin</text>
</g>
<g id="clust3" class="cluster">
<title>cluster_1617069028</title>
<polygon fill="#d8d8d8" stroke="black" points="16,-16 16,-178.8 426,-178.8 426,-16 16,-16"/>
<text text-anchor="middle" x="43.44" y="-162.2" font-family="Times New Roman,serif" font-size="14.00">Output</text>
</g>
<!-- XMLGenerater402627690 -->
<g id="node1" class="node">
<title>XMLGenerater402627690</title>
<polygon fill="#f1e5fd" stroke="transparent" points="366.5,-277.6 75.5,-277.6 75.5,-227.6 366.5,-227.6 366.5,-277.6"/>
<text text-anchor="start" x="81" y="-260" font-family="Times New Roman,serif" font-size="14.00">(I)XMLGenerater</text>
<text text-anchor="start" x="80.92" y="-236" font-family="Times New Roman,serif" font-size="14.00">+ generateGPX(track: Track, fileLocation: String)</text>
<polygon fill="black" stroke="black" points="76,-252.6 76,-252.6 367,-252.6 367,-252.6 76,-252.6"/>
<polygon fill="none" stroke="black" points="75.5,-227.6 75.5,-277.6 366.5,-277.6 366.5,-227.6 75.5,-227.6"/>
</g>
<!-- XMLGeneratorImplementation1782828798 -->
<g id="node2" class="node">
<title>XMLGeneratorImplementation1782828798</title>
<polygon fill="#ffffff" stroke="transparent" points="418,-146 24,-146 24,-24 418,-24 418,-146"/>
<text text-anchor="start" x="29" y="-128.4" font-family="Times New Roman,serif" font-size="14.00">(C)XMLGeneratorImplementation</text>
<text text-anchor="start" x="29" y="-104.4" font-family="Times New Roman,serif" font-size="14.00">+ generateGPX(track: Track, fileLocation: String)</text>
<text text-anchor="start" x="28.58" y="-80.4" font-family="Times New Roman,serif" font-size="14.00">&#45; generateHeader(doc: Document, root: Element, trackName: String)</text>
<text text-anchor="start" x="29" y="-56.4" font-family="Times New Roman,serif" font-size="14.00">&#45; generateTrkBody(doc: Document, root: Element, track: Track)</text>
<text text-anchor="start" x="29" y="-32.4" font-family="Times New Roman,serif" font-size="14.00">&#45; writeXml(doc: Document, output: OutputStream)</text>
<polygon fill="black" stroke="black" points="24,-121 24,-121 418,-121 418,-121 24,-121"/>
<polygon fill="none" stroke="black" points="24,-24 24,-146 418,-146 418,-24 24,-24"/>
</g>
<!-- XMLGenerater402627690&#45;&gt;XMLGeneratorImplementation1782828798 -->
<g id="edge1" class="edge">
<title>XMLGenerater402627690&#45;&gt;XMLGeneratorImplementation1782828798</title>
<path fill="none" stroke="black" d="M221,-217.4C221,-196.87 221,-170.18 221,-146.22"/>
<polygon fill="none" stroke="black" points="217.5,-217.52 221,-227.52 224.5,-217.52 217.5,-217.52"/>
</g>
</g>
</svg>
